<svg xmlns="http://www.w3.org/2000/svg" width="13.086" height="13.104" viewBox="0 0 13.086 13.104">
  <path id="BOOKLY" d="M18.348,16.1a6.33,6.33,0,0,1-4.635-1.9,6.352,6.352,0,0,1-1.9-4.653,6.355,6.355,0,0,1,1.9-4.653A6.333,6.333,0,0,1,18.348,3,6.5,6.5,0,0,1,24.9,9.552,6.485,6.485,0,0,1,18.348,16.1Zm0-10.692a3.953,3.953,0,0,0-2.9,1.17,4.041,4.041,0,0,0-1.17,2.97,4.039,4.039,0,0,0,1.17,2.97,3.981,3.981,0,0,0,2.9,1.152,3.97,3.97,0,0,0,2.9-1.161,4.013,4.013,0,0,0,1.17-2.961,4.044,4.044,0,0,0-1.17-2.97A3.956,3.956,0,0,0,18.348,5.412Z" transform="translate(-11.814 -3)" fill="#fff"/>
</svg>
