<svg xmlns="http://www.w3.org/2000/svg" width="75" height="16.602" viewBox="0 0 75 16.602">
  <g id="Logo" transform="translate(0)">
    <path id="BOOKLY" d="M18.348,16.1a6.33,6.33,0,0,1-4.635-1.9,6.352,6.352,0,0,1-1.9-4.653,6.355,6.355,0,0,1,1.9-4.653A6.333,6.333,0,0,1,18.348,3,6.5,6.5,0,0,1,24.9,9.552,6.485,6.485,0,0,1,18.348,16.1Zm0-10.692a3.953,3.953,0,0,0-2.9,1.17,4.041,4.041,0,0,0-1.17,2.97,4.039,4.039,0,0,0,1.17,2.97,3.981,3.981,0,0,0,2.9,1.152,3.97,3.97,0,0,0,2.9-1.161,4.013,4.013,0,0,0,1.17-2.961,4.044,4.044,0,0,0-1.17-2.97A3.956,3.956,0,0,0,18.348,5.412ZM46.386,15.853H43.9V3.252h2.484V8.814l4.32-5.562h2.862l-4.662,6.12,4.841,6.478-2.861,0-4.5-5.9v5.9Zm24.294,0H68.214V10.938l-4.3-7.686H66.72l2.736,5.256,2.736-5.256H75l-4.32,7.686v4.913Zm-6.917,0h-7.29V3.252h2.484V13.476h4.806v2.375Zm-58.416,0H0V3.252H4.968a3.938,3.938,0,0,1,2.727,1A3.293,3.293,0,0,1,8.8,6.8a3.084,3.084,0,0,1-1.188,2.52A3.127,3.127,0,0,1,9.27,12.2a3.4,3.4,0,0,1-1.134,2.628A4.024,4.024,0,0,1,5.346,15.852ZM2.484,10.56v2.97H5.346a1.4,1.4,0,0,0,1.044-.423A1.473,1.473,0,0,0,6.8,12.036a1.453,1.453,0,0,0-.414-1.053,1.407,1.407,0,0,0-1.044-.423Zm0-4.986V8.346H4.968a1.3,1.3,0,0,0,.963-.4,1.364,1.364,0,0,0,.387-.99,1.385,1.385,0,0,0-.378-.99,1.291,1.291,0,0,0-.972-.4ZM34.1,13.1a6.333,6.333,0,0,1-4.635-1.9,6.358,6.358,0,0,1-1.9-4.653,6.358,6.358,0,0,1,1.9-4.653,6.617,6.617,0,0,1,9.279,0,6.338,6.338,0,0,1,1.908,4.653A6.485,6.485,0,0,1,34.1,13.1Zm0-10.692a3.953,3.953,0,0,0-2.9,1.17,4.044,4.044,0,0,0-1.17,2.97,4.044,4.044,0,0,0,1.17,2.97,4.074,4.074,0,0,0,6.966-2.97A4.041,4.041,0,0,0,37,3.582,3.95,3.95,0,0,0,34.1,2.412Z" transform="translate(0 0)" fill="#fff"/>
    <path id="Path_72" data-name="Path 72" d="M0,.5H9" transform="translate(29.83 15.352)" fill="none" stroke="#fff" stroke-linecap="round" stroke-miterlimit="10" stroke-width="1.5"/>
  </g>
</svg>
